<svg width="15" height="15" viewBox="0 0 15 15" fill="none" xmlns="http://www.w3.org/2000/svg">
<path d="M4.25495 0C4.54489 0 4.77994 0.234933 4.77994 0.524737L4.77975 1.50675H10.4175L10.4176 0.531106C10.4176 0.241302 10.6527 0.00636893 10.9426 0.00636893C11.2325 0.00636893 11.4676 0.241302 11.4676 0.531106L11.4675 1.50675L13.5 1.50676C14.3284 1.50676 15 2.178 15 3.00601V13.5008C15 14.3288 14.3284 15 13.5 15H1.5C0.671573 15 0 14.3288 0 13.5008V3.00601C0 2.178 0.671573 1.50676 1.5 1.50676L3.72975 1.50675L3.72995 0.524737C3.72995 0.234933 3.965 0 4.25495 0ZM1.05 5.8065V13.5008C1.05 13.7492 1.25147 13.9505 1.5 13.9505H13.5C13.7485 13.9505 13.95 13.7492 13.95 13.5008V5.817L1.05 5.8065ZM5 10.964V12.2136H3.75V10.964H5ZM8.125 10.964V12.2136H6.875V10.964H8.125ZM11.25 10.964V12.2136H10V10.964H11.25ZM5 7.98132V9.23092H3.75V7.98132H5ZM8.125 7.98132V9.23092H6.875V7.98132H8.125ZM11.25 7.98132V9.23092H10V7.98132H11.25ZM3.72975 2.556L1.5 2.55624C1.25147 2.55624 1.05 2.75761 1.05 3.00601V4.75725L13.95 4.76775V3.00601C13.95 2.75761 13.7485 2.55624 13.5 2.55624L11.4675 2.556L11.4676 3.25273C11.4676 3.54253 11.2325 3.77747 10.9426 3.77747C10.6527 3.77747 10.4176 3.54253 10.4176 3.25273L10.4175 2.556H4.77975L4.77994 3.24636C4.77994 3.53617 4.54489 3.7711 4.25495 3.7711C3.965 3.7711 3.72995 3.53617 3.72995 3.24636L3.72975 2.556Z" fill="#454242"/>
</svg>
