<svg width="20" height="19" viewBox="0 0 20 19" fill="none" xmlns="http://www.w3.org/2000/svg">
<path d="M10 0L0 3.46877V6.97502H2.22223V12.9875H1.33332V14.8375H0V19H20V14.8375H18.6667V12.9875H17.7778V6.97502H20V3.46877L10 0ZM18.6667 16.225V17.6125H1.33332V16.225H2.66664V14.375H17.3333V16.225H18.6667ZM3.55555 12.9876V6.97506H4.88887V12.9876H3.55555ZM6.22223 12.9876V6.97506H8V12.9876H6.22223ZM9.33332 12.9876V6.97506H10.6666V12.9876H9.33332ZM12 12.9876V6.97506H13.7778V12.9876H12ZM15.1111 12.9876V6.97506H16.4444V12.9876H15.1111ZM18.6667 5.58754H1.33332V4.46883L10 1.4626L18.6667 4.46887V5.58754Z" fill="#C1C1C1"/>
</svg>
