<svg width="22" height="22" viewBox="0 0 22 22" fill="none" xmlns="http://www.w3.org/2000/svg">
<path d="M19.85 8.46559C19.85 8.05138 19.5142 7.71559 19.1 7.71559C18.6858 7.71559 18.35 8.05138 18.35 8.46559H19.85ZM3.64999 8.46559C3.64999 8.05138 3.3142 7.71559 2.89999 7.71559C2.48578 7.71559 2.14999 8.05138 2.14999 8.46559H3.64999ZM13.7925 20.6746L13.9649 21.4045L13.9649 21.4045L13.7925 20.6746ZM8.20748 20.6746L8.03505 21.4045L8.03505 21.4045L8.20748 20.6746ZM14.1427 3.23803L13.6105 3.76648L13.6105 3.76648L14.1427 3.23803ZM20.4678 10.6726C20.7596 10.9665 21.2345 10.9682 21.5284 10.6763C21.8224 10.3845 21.8241 9.9096 21.5322 9.61567L20.4678 10.6726ZM7.8573 3.23803L8.38951 3.76648L8.38951 3.76648L7.8573 3.23803ZM0.467794 9.61567C0.17594 9.9096 0.177623 10.3845 0.471553 10.6763C0.765482 10.9682 1.24035 10.9665 1.53221 10.6726L0.467794 9.61567ZM8.46492 18.0226L9.20204 18.1609L9.20204 18.1609L8.46492 18.0226ZM8.4864 17.9081L7.74928 17.7697L7.74928 17.7697L8.4864 17.9081ZM13.5136 17.9081L12.7765 18.0464L12.7765 18.0464L13.5136 17.9081ZM13.5351 18.0226L14.2722 17.8842L14.2722 17.8842L13.5351 18.0226ZM13.2131 20.5021L12.5359 20.1798L12.5359 20.1798L13.2131 20.5021ZM12.4061 20.4525C12.2281 20.8265 12.387 21.274 12.761 21.452C13.1351 21.63 13.5826 21.4711 13.7606 21.097L12.4061 20.4525ZM8.78692 20.5021L8.10969 20.8244L8.10969 20.8244L8.78692 20.5021ZM8.23944 21.097C8.41744 21.4711 8.86494 21.63 9.23896 21.452C9.61298 21.274 9.77188 20.8265 9.59389 20.4525L8.23944 21.097ZM10.2901 15.9362L10.4906 16.6589L10.4906 16.6589L10.2901 15.9362ZM11.7099 15.9362L11.5094 16.6589L11.5094 16.6589L11.7099 15.9362ZM18.35 8.46559V13.9304H19.85V8.46559H18.35ZM3.64999 13.9304V8.46559H2.14999V13.9304H3.64999ZM13.6201 19.9447C11.8967 20.3518 10.1033 20.3518 8.37991 19.9447L8.03505 21.4045C9.98519 21.8652 12.0148 21.8652 13.9649 21.4045L13.6201 19.9447ZM8.37991 19.9447C5.61242 19.2909 3.64999 16.8024 3.64999 13.9304H2.14999C2.14999 17.4912 4.58403 20.5892 8.03505 21.4045L8.37991 19.9447ZM13.9649 21.4045C17.4159 20.5892 19.85 17.4912 19.85 13.9304H18.35C18.35 16.8024 16.3876 19.2909 13.6201 19.9447L13.9649 21.4045ZM13.6105 3.76648L20.4678 10.6726L21.5322 9.61567L14.6749 2.70958L13.6105 3.76648ZM7.3251 2.70958L0.467794 9.61567L1.53221 10.6726L8.38951 3.76648L7.3251 2.70958ZM14.6749 2.70958C13.9491 1.97865 13.3527 1.37571 12.8179 0.964802C12.2661 0.540764 11.6918 0.25 11 0.25V1.75C11.2287 1.75 11.485 1.83224 11.904 2.15421C12.3401 2.48931 12.8548 3.00539 13.6105 3.76648L14.6749 2.70958ZM8.38951 3.76648C9.14523 3.00539 9.6599 2.48931 10.096 2.15421C10.515 1.83224 10.7713 1.75 11 1.75V0.25C10.3082 0.25 9.7339 0.540764 9.18206 0.964801C8.6473 1.37571 8.05086 1.97865 7.3251 2.70958L8.38951 3.76648ZM9.20204 18.1609L9.22353 18.0464L7.74928 17.7697L7.72779 17.8842L9.20204 18.1609ZM12.7765 18.0464L12.798 18.1609L14.2722 17.8842L14.2507 17.7697L12.7765 18.0464ZM12.5359 20.1798L12.4061 20.4525L13.7606 21.097L13.8903 20.8244L12.5359 20.1798ZM8.10969 20.8244L8.23944 21.097L9.59389 20.4525L9.46414 20.1798L8.10969 20.8244ZM12.798 18.1609C12.9264 18.845 12.8344 19.5525 12.5359 20.1798L13.8903 20.8244C14.3255 19.91 14.4591 18.88 14.2722 17.8842L12.798 18.1609ZM7.72779 17.8842C7.54087 18.88 7.67455 19.91 8.10969 20.8244L9.46414 20.1798C9.16558 19.5525 9.07363 18.845 9.20204 18.1609L7.72779 17.8842ZM10.4906 16.6589C10.824 16.5663 11.176 16.5663 11.5094 16.6589L11.9105 15.2135C11.3146 15.0481 10.6854 15.0481 10.0895 15.2135L10.4906 16.6589ZM14.2507 17.7697C14.02 16.5407 13.114 15.5474 11.9105 15.2135L11.5094 16.6589C12.1571 16.8386 12.6505 17.3752 12.7765 18.0464L14.2507 17.7697ZM9.22353 18.0464C9.34952 17.3752 9.84292 16.8386 10.4906 16.6589L10.0895 15.2135C8.88603 15.5474 7.97996 16.5407 7.74928 17.7697L9.22353 18.0464Z" fill="#FF1717"/>
</svg>
