<svg width="26" height="27" viewBox="0 0 26 27" fill="none" xmlns="http://www.w3.org/2000/svg">
<path d="M12.9965 9.05652C10.6094 9.05652 8.66141 11.0701 8.66141 13.5376C8.66141 16.005 10.6094 18.0187 12.9965 18.0187C15.3836 18.0187 17.3316 16.005 17.3316 13.5376C17.3316 11.0701 15.3836 9.05652 12.9965 9.05652ZM25.9985 13.5376C25.9985 11.682 26.0148 9.84315 25.914 7.99088C25.8132 5.83943 25.3384 3.93001 23.8164 2.35676C22.2911 0.78015 20.4472 0.292711 18.3658 0.1885C16.5706 0.0842893 14.7917 0.101098 12.9998 0.101098C11.2046 0.101098 9.42566 0.0842893 7.63373 0.1885C5.55236 0.292711 3.70515 0.783512 2.18315 2.35676C0.657899 3.93337 0.186339 5.83943 0.0855228 7.99088C-0.0152934 9.84651 0.00096733 11.6853 0.00096733 13.5376C0.00096733 15.3899 -0.0152934 17.232 0.0855228 19.0843C0.186339 21.2358 0.661151 23.1452 2.18315 24.7184C3.7084 26.295 5.55236 26.7825 7.63373 26.8867C9.42891 26.9909 11.2078 26.9741 12.9998 26.9741C14.7949 26.9741 16.5739 26.9909 18.3658 26.8867C20.4472 26.7825 22.2944 26.2917 23.8164 24.7184C25.3416 23.1418 25.8132 21.2358 25.914 19.0843C26.0181 17.232 25.9985 15.3932 25.9985 13.5376ZM12.9965 20.4323C9.30533 20.4323 6.32637 17.3531 6.32637 13.5376C6.32637 9.72213 9.30533 6.64286 12.9965 6.64286C16.6877 6.64286 19.6666 9.72213 19.6666 13.5376C19.6666 17.3531 16.6877 20.4323 12.9965 20.4323ZM19.9398 7.97071C19.078 7.97071 18.382 7.25132 18.382 6.36048C18.382 5.46965 19.078 4.75025 19.9398 4.75025C20.8016 4.75025 21.4976 5.46965 21.4976 6.36048C21.4978 6.57202 21.4577 6.78152 21.3795 6.977C21.3013 7.17249 21.1866 7.3501 21.0419 7.49968C20.8972 7.64925 20.7254 7.76785 20.5363 7.84868C20.3471 7.92951 20.1445 7.97098 19.9398 7.97071Z" fill="#C1C1C1"/>
</svg>
