<svg width="24" height="26" viewBox="0 0 24 26" fill="none" xmlns="http://www.w3.org/2000/svg">
<path d="M11.988 0C5.364 0 0 5.7792 0 12.9C0 20.0208 5.364 25.8 11.988 25.8C18.624 25.8 24 20.0208 24 12.9C24 5.7792 18.624 0 11.988 0ZM20.304 7.74H16.764C16.3884 6.14228 15.8323 4.60001 15.108 3.1476C17.2969 3.95772 19.1414 5.58792 20.304 7.74ZM12 2.6316C12.996 4.1796 13.776 5.8953 14.292 7.74H9.708C10.224 5.8953 11.004 4.1796 12 2.6316ZM2.712 15.48C2.52 14.6544 2.4 13.7901 2.4 12.9C2.4 12.0099 2.52 11.1456 2.712 10.32H6.768C6.672 11.1714 6.6 12.0228 6.6 12.9C6.6 13.7772 6.672 14.6286 6.768 15.48H2.712ZM3.696 18.06H7.236C7.62 19.6725 8.172 21.2205 8.892 22.6524C6.70076 21.8467 4.855 20.2154 3.696 18.06ZM7.236 7.74H3.696C4.855 5.58464 6.70076 3.95329 8.892 3.1476C8.16771 4.60001 7.61157 6.14228 7.236 7.74ZM12 23.1684C11.004 21.6204 10.224 19.9047 9.708 18.06H14.292C13.776 19.9047 12.996 21.6204 12 23.1684ZM14.808 15.48H9.192C9.084 14.6286 9 13.7772 9 12.9C9 12.0228 9.084 11.1585 9.192 10.32H14.808C14.916 11.1585 15 12.0228 15 12.9C15 13.7772 14.916 14.6286 14.808 15.48ZM15.108 22.6524C15.828 21.2205 16.38 19.6725 16.764 18.06H20.304C19.1414 20.2121 17.2969 21.8423 15.108 22.6524ZM17.232 15.48C17.328 14.6286 17.4 13.7772 17.4 12.9C17.4 12.0228 17.328 11.1714 17.232 10.32H21.288C21.48 11.1456 21.6 12.0099 21.6 12.9C21.6 13.7901 21.48 14.6544 21.288 15.48H17.232Z" fill="#C1C0C0"/>
</svg>
