<svg width="18" height="20" viewBox="0 0 18 20" fill="none" xmlns="http://www.w3.org/2000/svg">
<path fill-rule="evenodd" clip-rule="evenodd" d="M2.33331 2.41699C2.05717 2.41699 1.83331 2.64085 1.83331 2.91699V17.0837C1.83331 17.3598 2.05716 17.5837 2.33331 17.5837H12.8333V2.91699C12.8333 2.64084 12.6095 2.41699 12.3333 2.41699H2.33331ZM0.333313 2.91699C0.333313 1.81242 1.22875 0.916992 2.33331 0.916992H12.3333C13.4379 0.916992 14.3333 1.81243 14.3333 2.91699V18.3337C14.3333 18.7479 13.9975 19.0837 13.5833 19.0837H2.33331C1.22875 19.0837 0.333313 18.1883 0.333313 17.0837V2.91699Z" fill="#C1C1C1"/>
<path fill-rule="evenodd" clip-rule="evenodd" d="M14.4166 9.91699C14.3706 9.91699 14.3333 9.95429 14.3333 10.0003V17.5837H15.6666C15.9428 17.5837 16.1666 17.3598 16.1666 17.0837V10.0003C16.1666 9.95429 16.1293 9.91699 16.0833 9.91699H14.4166ZM12.8333 10.0003C12.8333 9.12586 13.5422 8.41699 14.4166 8.41699H16.0833C16.9578 8.41699 17.6666 9.12586 17.6666 10.0003V17.0837C17.6666 18.1882 16.7712 19.0837 15.6666 19.0837H13.5833C13.1691 19.0837 12.8333 18.7479 12.8333 18.3337V10.0003Z" fill="#C1C1C1"/>
<path fill-rule="evenodd" clip-rule="evenodd" d="M2.83331 5C2.83331 4.58579 3.1691 4.25 3.58331 4.25H6.91665C7.33086 4.25 7.66665 4.58579 7.66665 5C7.66665 5.41421 7.33086 5.75 6.91665 5.75H3.58331C3.1691 5.75 2.83331 5.41421 2.83331 5Z" fill="#C1C1C1"/>
<path fill-rule="evenodd" clip-rule="evenodd" d="M2.83331 7.91699C2.83331 7.50278 3.1691 7.16699 3.58331 7.16699H8.58331C8.99753 7.16699 9.33331 7.50278 9.33331 7.91699C9.33331 8.33121 8.99753 8.66699 8.58331 8.66699H3.58331C3.1691 8.66699 2.83331 8.33121 2.83331 7.91699Z" fill="#C1C1C1"/>
</svg>
