<svg width="19" height="21" viewBox="0 0 19 21" fill="none" xmlns="http://www.w3.org/2000/svg">
<path fill-rule="evenodd" clip-rule="evenodd" d="M10.9376 2.6901C9.40313 2.30317 7.80719 2.30317 6.27273 2.6901C4.32364 3.18158 2.75165 4.83493 2.2752 7.01843C1.90827 8.70003 1.90827 10.4509 2.2752 12.1325C2.75165 14.316 4.32364 15.9693 6.27273 16.4608C7.80719 16.8477 9.40313 16.8477 10.9376 16.4608C12.8867 15.9693 14.4587 14.316 14.9351 12.1325C15.3021 10.4509 15.3021 8.70004 14.9351 7.01843C14.4587 4.83493 12.8867 3.18158 10.9376 2.6901ZM5.78372 0.750806C7.63917 0.282935 9.57116 0.282934 11.4266 0.750806C14.1715 1.44295 16.2645 3.72956 16.8891 6.59206C17.3174 8.55461 17.3174 10.5963 16.8892 12.5588C16.6469 13.669 16.1838 14.6926 15.5474 15.5701L18.7322 18.9938C19.1084 19.3982 19.0855 20.0309 18.6811 20.4071C18.2767 20.7833 17.644 20.7604 17.2678 20.356L14.169 17.0248C13.3722 17.6678 12.4442 18.1435 11.4266 18.4001C9.57116 18.868 7.63917 18.868 5.78372 18.4001C3.03886 17.708 0.945782 15.4213 0.321177 12.5589C-0.107059 10.5963 -0.107059 8.5546 0.321176 6.59205C0.945781 3.72956 3.03886 1.44295 5.78372 0.750806Z" fill="#C1C1C1"/>
</svg>
