<svg width="14" height="17" viewBox="0 0 14 17" fill="none" xmlns="http://www.w3.org/2000/svg">
<path fill-rule="evenodd" clip-rule="evenodd" d="M6.66667 0C6.93188 0 7.18624 0.105357 7.37377 0.292893L10.2071 3.12623C10.5976 3.51675 10.5976 4.14992 10.2071 4.54044C9.81658 4.93096 9.18342 4.93096 8.79289 4.54044L7.66667 3.41421V10.2083C7.66667 10.7606 7.21895 11.2083 6.66667 11.2083C6.11438 11.2083 5.66667 10.7606 5.66667 10.2083V3.41421L4.54044 4.54044C4.14992 4.93096 3.51675 4.93096 3.12623 4.54044C2.7357 4.14992 2.7357 3.51675 3.12623 3.12623L5.95956 0.292893C6.1471 0.105357 6.40145 0 6.66667 0ZM1 7.08333C1.55228 7.08333 2 7.53105 2 8.08333V13.75C2 13.8605 2.0439 13.9665 2.12204 14.0446C2.20018 14.1228 2.30616 14.1667 2.41667 14.1667H10.9167C11.0272 14.1667 11.1332 14.1228 11.2113 14.0446C11.2894 13.9665 11.3333 13.8605 11.3333 13.75V8.08333C11.3333 7.53105 11.781 7.08333 12.3333 7.08333C12.8856 7.08333 13.3333 7.53105 13.3333 8.08333V13.75C13.3333 14.3909 13.0787 15.0056 12.6255 15.4588C12.1723 15.9121 11.5576 16.1667 10.9167 16.1667H2.41667C1.77573 16.1667 1.16104 15.9121 0.707825 15.4588C0.254612 15.0056 0 14.3909 0 13.75V8.08333C0 7.53105 0.447715 7.08333 1 7.08333Z" fill="#353434"/>
</svg>
