<svg width="21" height="21" viewBox="0 0 21 21" fill="none" xmlns="http://www.w3.org/2000/svg">
<path fill-rule="evenodd" clip-rule="evenodd" d="M10.1875 1.75C5.52761 1.75 1.75 5.52761 1.75 10.1875C1.75 14.8474 5.52761 18.6251 10.1875 18.6251C14.8474 18.6251 18.6251 14.8474 18.6251 10.1875C18.6251 5.52761 14.8474 1.75 10.1875 1.75ZM0.25 10.1875C0.25 4.69918 4.69918 0.25 10.1875 0.25C15.6759 0.25 20.1251 4.69918 20.1251 10.1875C20.1251 15.6759 15.6759 20.1251 10.1875 20.1251C4.69918 20.1251 0.25 15.6759 0.25 10.1875Z" fill="#C1C1C1"/>
<path fill-rule="evenodd" clip-rule="evenodd" d="M10.092 4.91455L14.8669 8.38642L13.045 13.9963H7.14296L5.31668 8.38666L10.092 4.91455ZM7.08045 8.95882L8.23211 12.4963H11.9551L13.1038 8.95906L10.092 6.76915L7.08045 8.95882Z" fill="#C1C1C1"/>
<path fill-rule="evenodd" clip-rule="evenodd" d="M13.2447 0.867211C13.5028 1.1912 13.4494 1.66306 13.1254 1.92114L10.0923 4.3372L7.11036 1.96561C6.78618 1.70778 6.73239 1.23596 6.99022 0.911774C7.24805 0.587589 7.71987 0.533799 8.04405 0.79163L10.0916 2.42006L12.1908 0.747867C12.5148 0.48979 12.9867 0.543222 13.2447 0.867211Z" fill="#C1C1C1"/>
<path fill-rule="evenodd" clip-rule="evenodd" d="M10.0919 2.62891C10.5061 2.62891 10.8419 2.96469 10.8419 3.37891V5.84215C10.8419 6.25636 10.5061 6.59215 10.0919 6.59215C9.67771 6.59215 9.34192 6.25636 9.34192 5.84215V3.37891C9.34192 2.96469 9.67771 2.62891 10.0919 2.62891Z" fill="#C1C1C1"/>
<path fill-rule="evenodd" clip-rule="evenodd" d="M17.829 4.01915C18.2184 4.16021 18.4198 4.59027 18.2787 4.97973L17.2984 7.68636L19.826 9.58829C20.157 9.83734 20.2234 10.3076 19.9743 10.6385C19.7253 10.9695 19.2551 11.0359 18.9241 10.7869L15.5105 8.21819L16.8684 4.46892C17.0095 4.07946 17.4395 3.8781 17.829 4.01915Z" fill="#C1C1C1"/>
<path fill-rule="evenodd" clip-rule="evenodd" d="M13.4519 14.7227L17.6803 14.7648C18.0945 14.7689 18.4269 15.1081 18.4228 15.5223C18.4187 15.9364 18.0796 16.2689 17.6654 16.2647L14.5187 16.2334L13.4814 19.2512C13.3467 19.643 12.92 19.8514 12.5283 19.7167C12.1366 19.582 11.9282 19.1553 12.0628 18.7636L13.4519 14.7227Z" fill="#C1C1C1"/>
<path fill-rule="evenodd" clip-rule="evenodd" d="M1.92648 15.478C1.92648 15.0638 2.26227 14.728 2.67648 14.728H6.63398L7.92906 18.6471C8.05903 19.0404 7.84556 19.4646 7.45226 19.5946C7.05897 19.7245 6.63478 19.5111 6.50481 19.1178L5.54989 16.228H2.67648C2.26227 16.228 1.92648 15.8922 1.92648 15.478Z" fill="#C1C1C1"/>
<path fill-rule="evenodd" clip-rule="evenodd" d="M2.39529 4.2433C2.78689 4.10831 3.21377 4.31634 3.34876 4.70794L4.55852 8.21752L1.47802 10.7656C1.15885 11.0296 0.686082 10.9849 0.422073 10.6657C0.158065 10.3465 0.202786 9.87376 0.52196 9.60975L2.80178 7.72397L1.93064 5.19677C1.79566 4.80516 2.00369 4.37828 2.39529 4.2433Z" fill="#C1C1C1"/>
<path fill-rule="evenodd" clip-rule="evenodd" d="M2.95771 7.76897C3.06896 7.36997 3.4826 7.13671 3.88159 7.24796L6.39998 7.95017C6.79898 8.06142 7.03224 8.47506 6.92098 8.87405C6.80973 9.27305 6.3961 9.50631 5.9971 9.39506L3.47871 8.69285C3.07972 8.58159 2.84646 8.16796 2.95771 7.76897Z" fill="#C1C1C1"/>
<path fill-rule="evenodd" clip-rule="evenodd" d="M8.12372 12.6361C8.46067 12.877 8.53852 13.3454 8.29761 13.6824L6.70201 15.914C6.4611 16.2509 5.99265 16.3288 5.6557 16.0879C5.31876 15.847 5.24091 15.3785 5.48182 15.0416L7.07741 12.8099C7.31833 12.473 7.78678 12.3951 8.12372 12.6361Z" fill="#C1C1C1"/>
<path fill-rule="evenodd" clip-rule="evenodd" d="M12.0845 12.6218C12.4293 12.3923 12.8949 12.4858 13.1244 12.8306L14.6097 15.0622C14.8392 15.4071 14.7457 15.8727 14.4009 16.1022C14.056 16.3317 13.5905 16.2382 13.361 15.8933L11.8757 13.6617C11.6462 13.3169 11.7396 12.8513 12.0845 12.6218Z" fill="#C1C1C1"/>
<path fill-rule="evenodd" clip-rule="evenodd" d="M17.1229 7.73724C17.2417 8.13405 17.0164 8.55203 16.6195 8.67084L14.2004 9.3951C13.8036 9.5139 13.3856 9.28853 13.2668 8.89172C13.148 8.49491 13.3734 8.07692 13.7702 7.95812L16.1893 7.23386C16.5861 7.11505 17.0041 7.34042 17.1229 7.73724Z" fill="#C1C1C1"/>
</svg>
