<svg width="20" height="14" viewBox="0 0 20 14" fill="none" xmlns="http://www.w3.org/2000/svg">
<path d="M19.9184 6.59417C19.8885 6.52667 19.1822 4.90583 17.622 3.29333C15.5344 1.13917 12.9034 0 10.0006 0C7.09784 0 4.46681 1.13917 2.38166 3.29333C0.821429 4.90583 0.115091 6.52667 0.0828386 6.59417C0.0282128 6.72216 0 6.86052 0 7.00042C0 7.14031 0.0282128 7.27867 0.0828386 7.40667C0.112673 7.475 0.819011 9.095 2.38005 10.7075C4.46681 12.8617 7.09784 14 10.0006 14C12.9034 14 15.5344 12.8617 17.6187 10.7075C19.1798 9.095 19.8861 7.475 19.9159 7.40667C19.971 7.27884 19.9996 7.14057 20 7.00068C20.0004 6.86079 19.9726 6.72234 19.9184 6.59417ZM16.2044 9.34417C14.4733 11.1058 12.3865 12 10.0006 12C7.6147 12 5.52793 11.1058 3.79918 9.34333C3.11892 8.64769 2.53377 7.85929 2.05994 7C2.53391 6.14105 3.11905 5.35295 3.79918 4.6575C5.52874 2.89417 7.6147 2 10.0006 2C12.3865 2 14.4725 2.89417 16.202 4.6575C16.8822 5.35289 17.4674 6.141 17.9413 7C17.4674 7.85924 16.8822 8.64763 16.202 9.34333L16.2044 9.34417ZM10.0006 3.33333C9.29891 3.33333 8.61298 3.54838 8.02954 3.95128C7.44611 4.35418 6.99137 4.92683 6.72285 5.59683C6.45432 6.26682 6.38406 7.00407 6.52096 7.71533C6.65785 8.42659 6.99574 9.07993 7.49192 9.59273C7.98809 10.1055 8.62025 10.4547 9.30846 10.5962C9.99667 10.7377 10.71 10.6651 11.3583 10.3876C12.0066 10.11 12.5607 9.64007 12.9505 9.03709C13.3403 8.43411 13.5484 7.7252 13.5484 7C13.5474 6.02788 13.1732 5.09589 12.5081 4.40849C11.843 3.7211 10.9412 3.33444 10.0006 3.33333ZM10.0006 8.66667C9.68165 8.66667 9.36986 8.56892 9.10466 8.38578C8.83947 8.20265 8.63277 7.94235 8.51071 7.63781C8.38866 7.33326 8.35672 6.99815 8.41894 6.67485C8.48117 6.35155 8.63476 6.05458 8.86029 5.82149C9.08582 5.5884 9.37317 5.42967 9.68599 5.36536C9.99881 5.30105 10.3231 5.33405 10.6177 5.4602C10.9124 5.58635 11.1643 5.79997 11.3415 6.07405C11.5187 6.34813 11.6132 6.67036 11.6132 7C11.6132 7.44203 11.4433 7.86595 11.1409 8.17851C10.8385 8.49107 10.4283 8.66667 10.0006 8.66667Z" fill="#C1C1C1"/>
</svg>
